<?xml version="1.0" encoding="UTF-8"?>
<svg xmlns="http://www.w3.org/2000/svg" version="1.2" width="221" height="221" baseProfile="tiny-ps" viewBox="0 0 221 221">
  <path d="M0 0 C72.93 0 145.86 0 221 0 C221 72.93 221 145.86 221 221 C148.07 221 75.14 221 0 221 C0 148.07 0 75.14 0 0 Z " fill="#E4E4E5" transform="translate(0,0)"/>
  <path d="M0 0 C5.11197344 1.58317441 9.9054262 3.65419157 14.7734375 5.8515625 C16.0355455 6.41815079 16.0355455 6.41815079 17.32315063 6.9961853 C19.10394253 7.79662928 20.88407065 8.59855143 22.66357422 9.40185547 C25.32965985 10.60454672 27.99862629 11.8006517 30.66796875 12.99609375 C41.2438108 17.74965411 51.67849437 22.7166532 62 28 C60.05695579 32.34951896 56.97753644 34.8230836 53.375 37.8125 C46.92167475 43.27021887 40.71720361 48.93256752 34.63232422 54.7980957 C22.88856462 66 22.88856462 66 19 66 C16.36 58.41 13.72 50.82 11 43 C-2.5049274 43.38311851 -14.92730949 44.61088996 -28 48 C-28.70108887 48.18046875 -29.40217773 48.3609375 -30.12451172 48.546875 C-50.53708258 53.96828343 -67.8600396 64.42724273 -83 79 C-83.64710937 79.57234375 -84.29421875 80.1446875 -84.9609375 80.734375 C-98.62596045 93.18045224 -105.25410621 110.20750122 -108 128 C-110.76661775 124.75910492 -111.92091935 121.69232756 -113.125 117.625 C-113.45757812 116.52414063 -113.79015625 115.42328125 -114.1328125 114.2890625 C-119.61801922 93.48481 -114.32108297 70.57591302 -103.97265625 52.1640625 C-91.40200119 32.00122963 -71.27905717 18.27856468 -48.25 12.75 C-40.15962654 11.23992787 -32.15834836 10.80696827 -23.9375 10.8125 C-22.43981079 10.8115332 -22.43981079 10.8115332 -20.91186523 10.81054688 C-12.47921157 10.87005081 -4.32158218 11.64728998 4 13 C3.71125 12.31292969 3.4225 11.62585937 3.125 10.91796875 C2.75375 10.01691406 2.3825 9.11585937 2 8.1875 C1.62875 7.29417969 1.2575 6.40085937 0.875 5.48046875 C0 3 0 3 0 0 Z " fill="#3C62A9" transform="translate(126,8)"/>
  <path d="M0 0 C0.66 0 1.32 0 2 0 C2.483059 1.39449109 2.96125517 2.79066707 3.4375 4.1875 C3.70433594 4.96480469 3.97117188 5.74210937 4.24609375 6.54296875 C9.76891686 24.54222125 6.19907311 47.42263906 -2 64 C-2.49242187 65.05703125 -2.98484375 66.1140625 -3.4921875 67.203125 C-12.71078624 85.816755 -28.76833683 98.92831452 -48.1171875 105.921875 C-58.00495068 108.89061104 -67.9911689 109.32169156 -78.23535156 109.26074219 C-80.36552614 109.25004756 -82.49485123 109.26068799 -84.625 109.2734375 C-106.41035066 109.29482467 -106.41035066 109.29482467 -113 106 C-112.66226563 106.65226562 -112.32453125 107.30453125 -111.9765625 107.9765625 C-109.6285312 112.57761806 -107.4422387 117.01772085 -106 122 C-109.93061949 121.3391595 -113.4011194 120.17100509 -117.1015625 118.69921875 C-118.30184082 118.22218506 -119.50211914 117.74515137 -120.73876953 117.25366211 C-122.03440778 116.73217441 -123.32981284 116.21010703 -124.625 115.6875 C-125.60844391 115.29257858 -125.60844391 115.29257858 -126.61175537 114.88967896 C-136.52261631 110.90438704 -146.35454578 106.75531544 -156.125 102.4375 C-157.26146973 101.93758545 -158.39793945 101.4376709 -159.56884766 100.92260742 C-160.62120605 100.45185791 -161.67356445 99.9811084 -162.7578125 99.49609375 C-164.13670654 98.88012329 -164.13670654 98.88012329 -165.54345703 98.25170898 C-167.92620468 97.03760173 -169.91945699 95.67202763 -172 94 C-161.44316535 84.2701174 -150.68354974 74.81586726 -139.75341797 65.50732422 C-138.5194044 64.44650554 -137.29530355 63.37410061 -136.07861328 62.29345703 C-135.45583496 61.74415527 -134.83305664 61.19485352 -134.19140625 60.62890625 C-133.34557983 59.87395874 -133.34557983 59.87395874 -132.48266602 59.10375977 C-131 58 -131 58 -129 58 C-127.82847622 61.45670732 -126.66360923 64.91562122 -125.5 68.375 C-125.16613281 69.35984375 -124.83226562 70.3446875 -124.48828125 71.359375 C-124.17246094 72.30039063 -123.85664062 73.24140625 -123.53125 74.2109375 C-123.23798828 75.08024902 -122.94472656 75.94956055 -122.64257812 76.84521484 C-122 79 -122 79 -122 81 C-85.78193078 76.93399458 -49.8450377 67.83351116 -22 43 C-21.37996094 42.4740625 -20.75992188 41.948125 -20.12109375 41.40625 C-8.99899115 31.29055576 -1.10319719 16.7808135 -0.078125 1.80078125 C-0.05234375 1.20652344 -0.0265625 0.61226563 0 0 Z " fill="#6C9942" transform="translate(203,78)"/>
  <path d="M0 0 C5.50191944 3.06329576 9.06141894 9.14130168 10.7890625 14.99609375 C12.93137784 26.93446641 7.18089892 36.45452478 0.74609375 46.0390625 C-15.2794774 66.87531166 -40.02492005 79.14018722 -64.2109375 87.99609375 C-64.5409375 87.99609375 -64.8709375 87.99609375 -65.2109375 87.99609375 C-65.2109375 80.40609375 -65.2109375 72.81609375 -65.2109375 64.99609375 C-54.9809375 64.99609375 -44.7509375 64.99609375 -34.2109375 64.99609375 C-34.2109375 55.42609375 -34.2109375 45.85609375 -34.2109375 35.99609375 C-44.4409375 35.99609375 -54.6709375 35.99609375 -65.2109375 35.99609375 C-65.2109375 27.08609375 -65.2109375 18.17609375 -65.2109375 8.99609375 C-61.48199001 10.8605675 -59.80883555 12.21218744 -57.0234375 15.1640625 C-55.85167969 16.37932617 -55.85167969 16.37932617 -54.65625 17.61914062 C-53.0201794 19.33492393 -51.38999423 21.05633776 -49.765625 22.78320312 C-48.98445313 23.58951172 -48.20328125 24.39582031 -47.3984375 25.2265625 C-46.69074219 25.97317139 -45.98304688 26.71978027 -45.25390625 27.48901367 C-43.34583779 29.24408441 -43.34583779 29.24408441 -41.08178711 28.81152344 C-34.44001511 25.91663652 -28.67477413 20.63125171 -22.9609375 16.24609375 C-22.42291504 15.83327148 -21.88489258 15.42044922 -21.33056641 14.99511719 C-18.31733755 12.66771869 -15.3479022 10.2970897 -12.41015625 7.875 C-11.78206055 7.36356445 -11.15396484 6.85212891 -10.50683594 6.32519531 C-9.28902129 5.33136129 -8.07962656 4.3270989 -6.87988281 3.31152344 C-2.79569817 -0.0049394 -2.79569817 -0.0049394 0 0 Z " fill="#6B9841" transform="translate(188.2109375,54.00390625)"/>
  <path d="M0 0 C0 7.59 0 15.18 0 23 C-10.0625 23.25 -10.0625 23.25 -13.19165039 23.29785156 C-19.25200538 23.51999248 -23.05348407 24.42938063 -28 28 C-29.2263757 30.45275141 -29.11415314 32.0505781 -29.09765625 34.7890625 C-29.09515869 35.63678223 -29.09266113 36.48450195 -29.09008789 37.35791016 C-29.08098389 38.4360498 -29.07187988 39.51418945 -29.0625 40.625 C-29.041875 44.04875 -29.02125 47.4725 -29 51 C-19.43 51.33 -9.86 51.66 0 52 C0 60.58 0 69.16 0 78 C-2 78 -2 78 -4.25 75.8984375 C-5.65411755 74.41852951 -7.05774496 72.93809148 -8.44921875 71.44628906 C-9.95716347 69.83049265 -11.4782845 68.22782216 -13 66.625 C-13.50789063 66.06683594 -14.01578125 65.50867188 -14.5390625 64.93359375 C-16.21174577 63.1285854 -16.21174577 63.1285854 -19 61 C-29.11667529 60.92359007 -41.59899259 73.74013967 -49.3515625 79.5 C-50.11629883 80.0671875 -50.88103516 80.634375 -51.66894531 81.21875 C-53.28819923 82.45608521 -54.87987772 83.73001422 -56.44824219 85.03125 C-57.63015137 86.00578125 -57.63015137 86.00578125 -58.8359375 87 C-59.54024902 87.598125 -60.24456055 88.19625 -60.97021484 88.8125 C-63 90 -63 90 -65.16748047 89.79516602 C-68.55836929 88.32379313 -69.51987665 85.43479441 -71.01171875 82.2109375 C-74.09612277 72.18967226 -72.7260445 61.25517049 -68 52 C-63.30714575 43.20089829 -56.96868501 36.0312924 -50 29 C-49.15695313 28.1440625 -48.31390625 27.288125 -47.4453125 26.40625 C-36.20351456 15.60865684 -16.35362283 0 0 0 Z " fill="#3B61A8" transform="translate(96,66)"/>
  <path d="M0 0 C0.33 0 0.66 0 1 0 C1.52486737 16.62079992 0.48256083 31.8713251 -7 47 C-7.49242187 48.05703125 -7.98484375 49.1140625 -8.4921875 50.203125 C-17.71078624 68.816755 -33.76833683 81.92831452 -53.1171875 88.921875 C-63.14747529 91.9291995 -73.23344376 92.29551947 -83.61987305 92.20581055 C-85.82677645 92.18738078 -88.03326139 92.18530288 -90.24023438 92.18554688 C-96.59122275 92.16367963 -102.72599983 92.01275021 -109 91 C-109 90.67 -109 90.34 -109 90 C-108.34741211 90.02094727 -107.69482422 90.04189453 -107.02246094 90.06347656 C-92.1427641 90.47520898 -78.41530788 89.82224072 -64 86 C-62.88625 85.71125 -61.7725 85.4225 -60.625 85.125 C-41.29780189 79.36796226 -26.13508501 67.59757954 -15 51 C-14.49855469 50.27941406 -13.99710937 49.55882812 -13.48046875 48.81640625 C-4.04474427 34.64856616 -1.08791387 16.66225977 0 0 Z " fill="#538039" transform="translate(208,95)"/>
  <path d="M0 0 C-0.6875 1.9375 -0.6875 1.9375 -2 4 C-6.11629955 5.2074352 -10.19661932 5.12914585 -14.4609375 5.1328125 C-15.16973053 5.13376923 -15.87852356 5.13472595 -16.60879517 5.13571167 C-18.10312998 5.13638976 -19.59746779 5.1345614 -21.09179688 5.13037109 C-23.36074562 5.12503353 -25.62949499 5.13032043 -27.8984375 5.13671875 C-29.35677126 5.13605759 -30.81510491 5.13477565 -32.2734375 5.1328125 C-33.58747559 5.13168457 -34.90151367 5.13055664 -36.25537109 5.12939453 C-39.938022 5.00214163 -43.37002419 4.59158208 -47 4 C-47 3.67 -47 3.34 -47 3 C-46.33170166 3.01571045 -45.66340332 3.0314209 -44.97485352 3.04760742 C-32.49808963 3.30127415 -20.55628388 3.3161946 -8.328125 0.65625 C-5.43175662 0.08513511 -2.9358877 -0.13446814 0 0 Z " fill="#4C7431" transform="translate(146,182)"/>
  <path d="M0 0 C0.66 0 1.32 0 2 0 C5.44419134 9.41002278 5.44419134 9.41002278 5 14 C4.67 13.34 4.34 12.68 4 12 C3.34 12 2.68 12 2 12 C1.34 13.65 0.68 15.3 0 17 C-2.62113109 13.06830336 -1.88205685 11.39689982 -1.125 6.8125 C-0.92132813 5.54019531 -0.71765625 4.26789063 -0.5078125 2.95703125 C-0.34023437 1.98121094 -0.17265625 1.00539063 0 0 Z " fill="#608643" transform="translate(203,78)"/>
  <path d="M0 0 C0.33 0 0.66 0 1 0 C1.19538118 9.86674975 1.38222795 19.34346884 -1 29 C-1.66 29 -2.32 29 -3 29 C-3.99 32.465 -3.99 32.465 -5 36 C-6.17232973 32.4830108 -5.7427381 31.41328426 -4.6875 27.9375 C-2.01398986 18.63514965 -0.63083188 9.66168828 0 0 Z " fill="#4A7233" transform="translate(208,95)"/>
  <path d="M0 0 C0.66 0.33 1.32 0.66 2 1 C0.13576613 3.11460833 -1.74034825 5.21621478 -3.625 7.3125 C-4.14707031 7.90740234 -4.66914062 8.50230469 -5.20703125 9.11523438 C-8.46921453 12.71974553 -11.34111199 15.25792296 -16 17 C-16.66 16.67 -17.32 16.34 -18 16 C-16.1265988 14.26907429 -14.25133718 12.54023837 -12.375 10.8125 C-11.85292969 10.32974609 -11.33085938 9.84699219 -10.79296875 9.34960938 C-7.28138707 6.11982129 -3.68700349 3.02821458 0 0 Z " fill="#60883F" transform="translate(59,147)"/>
  <path d="M0 0 C2 3 2 3 1.64453125 5.8828125 C1.36996094 6.95273438 1.09539062 8.02265625 0.8125 9.125 C0.55082031 10.20007813 0.28914062 11.27515625 0.01953125 12.3828125 C-0.31691406 13.24648437 -0.65335938 14.11015625 -1 15 C-1.99 15.33 -2.98 15.66 -4 16 C-4 13.69 -4 11.38 -4 9 C-3.34 8.67 -2.68 8.34 -2 8 C-1.31527335 6.11235097 -1.31527335 6.11235097 -0.875 3.9375 C-0.70742187 3.20402344 -0.53984375 2.47054687 -0.3671875 1.71484375 C-0.24601563 1.14894531 -0.12484375 0.58304687 0 0 Z " fill="#598440" transform="translate(205,121)"/>
  <path d="M0 0 C5.19644079 1.59890486 10.06612142 3.74138003 15 6 C11.70303895 7.09898702 10.59505097 6.87124444 7.3125 6.0625 C6.50425781 5.86785156 5.69601563 5.67320313 4.86328125 5.47265625 C4.24839844 5.31667969 3.63351563 5.16070313 3 5 C2.67 5.66 2.34 6.32 2 7 C0.5393715 4.35261084 0 3.10551666 0 0 Z " fill="#3D5C9A" transform="translate(126,8)"/>
  <path d="M0 0 C3.1875 0.875 3.1875 0.875 6 2 C5.01 2.495 5.01 2.495 4 3 C4 3.66 4 4.32 4 5 C-2.4 6.23076923 -2.4 6.23076923 -5.4375 5.0625 C-5.953125 4.711875 -6.46875 4.36125 -7 4 C-6.1028125 3.566875 -6.1028125 3.566875 -5.1875 3.125 C-2.80672208 1.95257974 -2.80672208 1.95257974 0 0 Z " fill="#57833C" transform="translate(147,180)"/>
  <path d="M0 0 C0.66 0.33 1.32 0.66 2 1 C1.21625 1.721875 0.4325 2.44375 -0.375 3.1875 C-3.07970782 5.73782931 -3.07970782 5.73782931 -4 8.5625 C-5.30405496 11.74113398 -7.24092182 13.03960235 -10 15 C-10 11.04852353 -8.61580052 9.94684795 -6.125 6.9375 C-5.40570312 6.05964844 -4.68640625 5.18179688 -3.9453125 4.27734375 C-2 2 -2 2 0 0 Z " fill="#3B5A97" transform="translate(35,44)"/>
  <path d="M0 0 C-1.32 0.33 -2.64 0.66 -4 1 C-4 1.66 -4 2.32 -4 3 C-9.28 2.67 -14.56 2.34 -20 2 C-20 1.67 -20 1.34 -20 1 C-13.34362157 -0.23839599 -6.7528064 -0.09139136 0 0 Z " fill="#4A6FB2" transform="translate(137,48)"/>
  <path d="M0 0 C0.66 0.33 1.32 0.66 2 1 C0.70401211 3.89104992 -0.49296136 6.03018393 -3 8 C-6.1875 9.1875 -6.1875 9.1875 -9 10 C-8.06409496 8.8944811 -7.12620142 7.79064547 -6.1875 6.6875 C-5.66542969 6.07261719 -5.14335938 5.45773438 -4.60546875 4.82421875 C-3.12827531 3.14575321 -1.59960869 1.56117966 0 0 Z " fill="#375A9B" transform="translate(51,90)"/>
  <path d="M0 0 C-2 1 -4 2 -6 3 C-6.99 2.67 -7.98 2.34 -9 2 C-9 2.66 -9 3.32 -9 4 C-15.625 5.125 -15.625 5.125 -19 4 C-16.96185767 3.32263519 -14.91929445 2.65856466 -12.875 2 C-11.73804687 1.62875 -10.60109375 1.2575 -9.4296875 0.875 C-6.12104059 0.03088051 -3.39471984 -0.16509276 0 0 Z " fill="#3B5995" transform="translate(84,21)"/>
  <path d="M0 0 C0.66 0 1.32 0 2 0 C2.66 3.63 3.32 7.26 4 11 C2 11 2 11 -0.5625 8.625 C-3 6 -3 6 -4 4 C-2.68 4 -1.36 4 0 4 C0 2.68 0 1.36 0 0 Z " fill="#3E609A" transform="translate(92,133)"/>
  <path d="M0 0 C1.65 0.33 3.3 0.66 5 1 C3.84826645 3.46800047 2.95216435 5.04783565 1 7 C-0.32 7 -1.64 7 -3 7 C-3 6.34 -3 5.68 -3 5 C-1.68 4.67 -0.36 4.34 1 4 C0.67 2.68 0.34 1.36 0 0 Z " fill="#4869A9" transform="translate(183,35)"/>
  <path d="M0 0 C1.45922693 0.11409593 2.91740598 0.24165544 4.375 0.375 C5.59316406 0.47941406 5.59316406 0.47941406 6.8359375 0.5859375 C9 1 9 1 11 3 C7.04 3 3.08 3 -1 3 C-0.67 2.01 -0.34 1.02 0 0 Z " fill="#557F3A" transform="translate(128,184)"/>
  <path d="M0 0 C0.66 0.99 1.32 1.98 2 3 C0.02579865 5.52259061 -0.96745642 5.9929808 -4.1875 6.6875 C-5.5796875 6.8421875 -5.5796875 6.8421875 -7 7 C-4.66666667 4.66666667 -2.33333333 2.33333333 0 0 Z " fill="#4364A1" transform="translate(43,37)"/>
  <path d="M0 0 C1.50559539 1.96382007 2.89131683 3.78263366 4 6 C4.99 6.66 5.98 7.32 7 8 C5.68 8.33 4.36 8.66 3 9 C0.90250005 6.64031256 0.03094296 5.45383006 -0.1875 2.25 C-0.125625 1.5075 -0.06375 0.765 0 0 Z " fill="#4A6CAA" transform="translate(27,147)"/>
  <path d="M0 0 C0.33 0.66 0.66 1.32 1 2 C1.66 2 2.32 2 3 2 C2.67 4.64 2.34 7.28 2 10 C1.34 10 0.68 10 0 10 C0 6.7 0 3.4 0 0 Z " fill="#76A14F" transform="translate(206,90)"/>
  <path d="M0 0 C0.268125 0.639375 0.53625 1.27875 0.8125 1.9375 C1.88667752 4.33131686 1.88667752 4.33131686 5 5 C5 5.66 5 6.32 5 7 C3.35 6.67 1.7 6.34 0 6 C-1.125 2.25 -1.125 2.25 0 0 Z " fill="#70964D" transform="translate(92,193)"/>
  <path d="M0 0 C0.66 0 1.32 0 2 0 C2.33 2.31 2.66 4.62 3 7 C2.67 6.34 2.34 5.68 2 5 C-0.52733235 4.34444881 -0.52733235 4.34444881 -3 4 C-1.625 2 -1.625 2 0 0 Z " fill="#618445" transform="translate(72,136)"/>
  <path d="M0 0 C0.33 0 0.66 0 1 0 C1 2.97 1 5.94 1 9 C0.34 9 -0.32 9 -1 9 C-1.33 9.99 -1.66 10.98 -2 12 C-1.85831863 10.56208484 -1.71148957 9.1246763 -1.5625 7.6875 C-1.48128906 6.88699219 -1.40007813 6.08648437 -1.31640625 5.26171875 C-1 3 -1 3 0 0 Z " fill="#375595" transform="translate(14,79)"/>
  <path d="M0 0 C0.99 0 1.98 0 3 0 C1.25 5.75 1.25 5.75 -1 8 C-1.04241723 5.66705225 -1.04092937 3.33297433 -1 1 C-0.67 0.67 -0.34 0.34 0 0 Z " fill="#3C5C98" transform="translate(23,107)"/>
  <path d="M0 0 C-5.2734375 3.22265625 -5.2734375 3.22265625 -7 4 C-7.66 3.67 -8.32 3.34 -9 3 C-7 0 -7 0 -4.5 -0.75 C-2 -1 -2 -1 0 0 Z " fill="#405F98" transform="translate(76,63)"/>
  <path d="M0 0 C1.98 0.66 3.96 1.32 6 2 C5.01 2.33 4.02 2.66 3 3 C2.26676204 5.01508358 2.26676204 5.01508358 2 7 C0.5393715 4.35261084 0 3.10551666 0 0 Z " fill="#3A568B" transform="translate(126,8)"/>
  <path d="M0 0 C0 3 0 3 -2 5.1875 C-2.66 5.785625 -3.32 6.38375 -4 7 C-4.66 6.34 -5.32 5.68 -6 5 C-4.02 3.35 -2.04 1.7 0 0 Z " fill="#5E843D" transform="translate(40,164)"/>
<title>Title</title></svg>
